<svg xmlns="http://www.w3.org/2000/svg" width="1200" height="630" viewBox="0 0 1200 630" role="img" aria-label="Malermeister Heußer – Maler Berlin">
  <defs>
    <linearGradient id="bg" x1="0" y1="0" x2="1" y2="1">
      <stop offset="0" stop-color="#0b0c10"/>
      <stop offset="1" stop-color="#161922"/>
    </linearGradient>
    <linearGradient id="copper" x1="0" y1="0" x2="1" y2="1">
      <stop offset="0" stop-color="#f0c088"/>
      <stop offset="1" stop-color="#c2854a"/>
    </linearGradient>
    <radialGradient id="glow" cx="0.8" cy="0.1" r="0.8">
      <stop offset="0" stop-color="#e0a86a" stop-opacity="0.35"/>
      <stop offset="1" stop-color="#e0a86a" stop-opacity="0"/>
    </radialGradient>
  </defs>
  <rect width="1200" height="630" fill="url(#bg)"/>
  <rect width="1200" height="630" fill="url(#glow)"/>
  <g transform="translate(90,110)">
    <rect x="0" y="0" width="78" height="78" rx="18" fill="url(#copper)"/>
    <text x="39" y="55" font-family="Sora, Arial, sans-serif" font-size="44" font-weight="800" fill="#1a1206" text-anchor="middle">H</text>
    <text x="100" y="34" font-family="Sora, Arial, sans-serif" font-size="26" font-weight="700" fill="#f4f1ea">Malermeister Heußer</text>
    <text x="100" y="64" font-family="Inter, Arial, sans-serif" font-size="17" letter-spacing="3" fill="#e0a86a">MEISTERBETRIEB · BERLIN</text>
  </g>
  <text x="90" y="310" font-family="Sora, Arial, sans-serif" font-size="74" font-weight="800" fill="#f4f1ea">Maler in Berlin,</text>
  <text x="90" y="392" font-family="Sora, Arial, sans-serif" font-size="74" font-weight="800" fill="url(#copper)">die Wert schaffen</text>
  <text x="90" y="452" font-family="Inter, Arial, sans-serif" font-size="26" fill="#c3bfb6">Fassade · Altbau · Wohnraum · Gewerbe</text>
  <g transform="translate(90,510)" font-family="Inter, Arial, sans-serif">
    <text x="0" y="24" font-size="24" fill="#f0c088">★★★★★</text>
    <text x="150" y="24" font-size="22" fill="#f4f1ea" font-weight="600">4,87 / 5 · 74 Google-Bewertungen</text>
    <text x="0" y="60" font-size="20" fill="#8f8b83">Farrow &amp; Ball Partner · über 23 Jahre Erfahrung · Festpreis-Garantie</text>
  </g>
  <g transform="translate(980,150)">
    <rect x="0" y="0" width="60" height="60" rx="12" fill="#31373f"/>
    <rect x="72" y="0" width="60" height="60" rx="12" fill="#e5c8b8"/>
    <rect x="0" y="72" width="60" height="60" rx="12" fill="#79857b"/>
    <rect x="72" y="72" width="60" height="60" rx="12" fill="#c2854a"/>
    <rect x="0" y="144" width="60" height="60" rx="12" fill="#b79b8b"/>
    <rect x="72" y="144" width="60" height="60" rx="12" fill="#6b6a56"/>
  </g>
</svg>
